<svg width="203" height="34" viewBox="0 0 203 34" fill="none" xmlns="http://www.w3.org/2000/svg">
<path d="M21.9933 29C18.7152 29 18.3287 28.9827 17.0494 28.9268C16.0518 28.8941 15.0671 28.6916 14.1377 28.328C13.3424 28.0189 12.6201 27.5481 12.0168 26.9454C11.4134 26.3427 10.9422 25.6213 10.633 24.827C10.2829 23.8956 10.0941 22.9115 10.0746 21.9168C10 20.642 10 20.2242 10 16.976C10 13.6933 10.0173 13.31 10.0746 12.0393C10.0945 11.0459 10.2833 10.0632 10.633 9.13307C10.9418 8.33777 11.4134 7.61554 12.0175 7.01249C12.6217 6.40945 13.3451 5.93884 14.1417 5.63074C15.0727 5.27971 16.0571 5.09068 17.0521 5.07186C18.3247 5 18.7431 5 21.9933 5C25.2982 5 25.678 5.0173 26.9373 5.07186C27.934 5.09049 28.9228 5.27944 29.8556 5.63074C30.652 5.9392 31.3753 6.40993 31.9794 7.01293C32.5835 7.61593 33.0551 8.33798 33.3644 9.13307C33.7202 10.0778 33.9107 11.0758 33.9254 12.0832C34 13.358 34 13.7745 34 17.0213C34 20.2681 33.9813 20.6939 33.9254 21.9541C33.9055 22.9497 33.7162 23.9347 33.3657 24.8669C33.0557 25.6618 32.5836 26.3836 31.9793 26.9865C31.3751 27.5894 30.6519 28.0603 29.8556 28.3693C28.9228 28.7179 27.938 28.9069 26.9426 28.9268C25.67 29 25.2529 29 21.9933 29ZM21.948 7.10645C18.6885 7.10645 18.35 7.12242 17.0774 7.17964C16.3174 7.18956 15.5646 7.32954 14.852 7.59348C14.3322 7.79244 13.8599 8.09795 13.4656 8.49033C13.0712 8.8827 12.7636 9.35324 12.5626 9.87159C12.2961 10.5902 12.1561 11.35 12.1481 12.1164C12.0775 13.4059 12.0775 13.7438 12.0775 16.976C12.0775 20.1697 12.0895 20.5569 12.1481 21.8383C12.1601 22.5968 12.3001 23.3486 12.5626 24.0605C12.9704 25.1078 13.8019 25.9355 14.8533 26.3373C15.5651 26.6029 16.3176 26.743 17.0774 26.7512C18.3674 26.8257 18.7072 26.8257 21.948 26.8257C25.2169 26.8257 25.5554 26.8097 26.8173 26.7512C27.5774 26.742 28.3303 26.602 29.0428 26.3373C29.5598 26.1368 30.0294 25.8311 30.4217 25.4396C30.814 25.0481 31.1204 24.5794 31.3215 24.0632C31.588 23.3446 31.7279 22.5835 31.7359 21.817H31.7506C31.8079 20.5449 31.8079 20.2056 31.8079 16.9548C31.8079 13.7039 31.7932 13.3619 31.7359 12.0912C31.7239 11.3333 31.5838 10.5829 31.3215 9.87159C31.1209 9.35469 30.8147 8.88517 30.4223 8.49295C30.03 8.10073 29.5602 7.7944 29.0428 7.59348C28.3304 7.32825 27.5775 7.18824 26.8173 7.17964C25.5287 7.10645 25.1916 7.10645 21.948 7.10645ZM21.9933 23.1224C20.7748 23.1232 19.5834 22.7631 18.5698 22.0877C17.5562 21.4123 16.7659 20.4519 16.299 19.328C15.8321 18.204 15.7094 16.9671 15.9466 15.7735C16.1837 14.58 16.77 13.4835 17.6313 12.6227C18.4925 11.7619 19.5901 11.1755 20.7852 10.9377C21.9802 10.6998 23.2191 10.8213 24.345 11.2865C25.471 11.7518 26.4335 12.5401 27.1107 13.5516C27.788 14.5632 28.1497 15.7526 28.1499 16.9694C28.1478 18.5997 27.4987 20.1627 26.3447 21.316C25.1907 22.4693 23.626 23.1189 21.9933 23.1224ZM21.9933 12.9747C21.2027 12.9747 20.4297 13.2088 19.7723 13.6475C19.1149 14.0861 18.6025 14.7096 18.2999 15.4391C17.9973 16.1685 17.9181 16.9712 18.0724 17.7455C18.2266 18.5199 18.6074 19.2312 19.1665 19.7895C19.7256 20.3478 20.4379 20.728 21.2134 20.882C21.9889 21.0361 22.7927 20.957 23.5232 20.6549C24.2537 20.3527 24.8781 19.8411 25.3174 19.1846C25.7567 18.5281 25.9911 17.7563 25.9911 16.9667C25.9887 15.9087 25.5667 14.8948 24.8175 14.1467C24.0683 13.3986 23.0529 12.9772 21.9933 12.9747ZM28.3898 12.0259C28.2011 12.0252 28.0145 11.9875 27.8405 11.9147C27.6664 11.842 27.5085 11.7357 27.3756 11.602C27.1072 11.332 26.9572 10.9666 26.9586 10.5862C26.96 10.2057 27.1127 9.84142 27.3831 9.5734C27.6535 9.30538 28.0195 9.15561 28.4004 9.15702C28.7814 9.15843 29.1463 9.31092 29.4147 9.58093C29.6831 9.85094 29.8331 10.2164 29.8317 10.5968C29.8302 10.9773 29.6775 11.3416 29.4071 11.6096C29.1367 11.8776 28.7708 12.0274 28.3898 12.0259Z" fill="white"/>
<path fill-rule="evenodd" clip-rule="evenodd" d="M44 17.067C44 23.033 48.333 27.994 54 29V20.333H51V17H54V14.333C54 11.333 55.933 9.667 58.667 9.667C59.533 9.667 60.467 9.8 61.333 9.933V13H59.8C58.333 13 58 13.733 58 14.667V17H61.2L60.667 20.333H58V29C63.667 27.994 68 23.034 68 17.067C68 10.43 62.6 5 56 5C49.4 5 44 10.43 44 17.067Z" fill="white"/>
<path d="M102 9.96027C101.117 10.3303 100.169 10.5803 99.1726 10.6933C100.201 10.1111 100.97 9.19474 101.337 8.11527C100.371 8.65826 99.3135 9.04047 98.2107 9.24527C97.4691 8.49614 96.4868 7.9996 95.4164 7.83274C94.3459 7.66589 93.2472 7.83806 92.2907 8.32252C91.3343 8.80698 90.5737 9.57663 90.127 10.512C89.6803 11.4473 89.5725 12.496 89.8203 13.4953C87.8624 13.4023 85.9471 12.9208 84.1986 12.0822C82.4502 11.2435 80.9076 10.0664 79.6711 8.62727C79.2483 9.31727 79.0052 10.1173 79.0052 10.9693C79.0047 11.7363 79.2044 12.4915 79.5864 13.168C79.9685 13.8445 80.5211 14.4213 81.1953 14.8473C80.4134 14.8237 79.6488 14.6239 78.965 14.2643V14.3243C78.965 15.4 79.3583 16.4426 80.0782 17.2753C80.7982 18.1079 81.8005 18.6792 82.915 18.8923C82.1897 19.078 81.4292 19.1053 80.6911 18.9723C81.0055 19.8979 81.6181 20.7073 82.4429 21.2872C83.2678 21.8671 84.2636 22.1884 85.2911 22.2063C83.5469 23.5017 81.3928 24.2044 79.1754 24.2013C78.7826 24.2014 78.3901 24.1797 78 24.1363C80.2508 25.5054 82.871 26.2321 85.5469 26.2293C94.6053 26.2293 99.5573 19.1313 99.5573 12.9753C99.5573 12.7753 99.552 12.5733 99.5425 12.3733C100.506 11.7142 101.337 10.8982 101.998 9.96327L102 9.96027Z" fill="white"/>
<path d="M124 5C117.383 5 112 10.3827 112 17C112 23.6173 117.383 29 124 29C130.617 29 136 23.6173 136 17C136 10.3827 130.617 5 124 5ZM131.936 10.5327C133.363 12.2779 134.229 14.499 134.249 16.9192C133.912 16.8471 130.522 16.1606 127.113 16.5904C127.04 16.4144 126.968 16.2385 126.893 16.0625C126.68 15.5635 126.452 15.0644 126.213 14.5769C130 13.0279 131.719 10.8269 131.936 10.5327ZM124 6.76538C126.605 6.76538 128.985 7.74327 130.793 9.34712C130.609 9.60962 129.065 11.6837 125.422 13.051C123.743 9.96442 121.883 7.43173 121.597 7.05096C122.385 6.86058 123.189 6.76538 124 6.76538ZM119.641 7.74038C119.912 8.10962 121.744 10.651 123.44 13.6683C118.646 14.9404 114.423 14.9231 113.964 14.9173C114.631 11.7356 116.774 9.09327 119.641 7.74038ZM113.751 17.0144C113.751 16.9106 113.754 16.8038 113.757 16.7C114.204 16.7087 119.171 16.7721 124.291 15.2404C124.586 15.8144 124.865 16.3971 125.122 16.9798C124.987 17.0173 124.851 17.0577 124.718 17.101C119.431 18.8144 116.618 23.4731 116.385 23.8683C114.749 22.051 113.751 19.6481 113.751 17.0144ZM124 27.2635C121.629 27.2635 119.445 26.4558 117.709 25.1C117.893 24.7221 119.967 20.7154 125.748 18.699L125.814 18.676C127.254 22.4144 127.848 25.55 128.001 26.45C126.737 26.9904 125.375 27.2672 124 27.2635ZM129.726 25.5125C129.622 24.8894 129.077 21.8894 127.736 18.2058C130.949 17.6923 133.77 18.5346 134.119 18.6442C133.663 21.4942 132.028 23.9577 129.726 25.5125Z" fill="white"/>
<path fill-rule="evenodd" clip-rule="evenodd" d="M158 5.29602C151.37 5.29602 146 10.666 146 17.296C146 22.606 149.435 27.091 154.205 28.681C154.805 28.786 155.03 28.426 155.03 28.111C155.03 27.826 155.015 26.881 155.015 25.876C152 26.431 151.22 25.141 150.98 24.466C150.845 24.121 150.26 23.056 149.75 22.771C149.33 22.546 148.73 21.991 149.735 21.976C150.68 21.961 151.355 22.846 151.58 23.206C152.66 25.021 154.385 24.511 155.075 24.196C155.18 23.416 155.495 22.891 155.84 22.591C153.17 22.291 150.38 21.256 150.38 16.666C150.38 15.361 150.845 14.281 151.61 13.441C151.49 13.141 151.07 11.911 151.73 10.261C151.73 10.261 152.735 9.94602 155.03 11.491C155.99 11.221 157.01 11.086 158.03 11.086C159.05 11.086 160.07 11.221 161.03 11.491C163.325 9.93102 164.33 10.261 164.33 10.261C164.99 11.911 164.57 13.141 164.45 13.441C165.215 14.281 165.68 15.346 165.68 16.666C165.68 21.271 162.875 22.291 160.205 22.591C160.64 22.966 161.015 23.686 161.015 24.811C161.015 26.416 161 27.706 161 28.111C161 28.426 161.225 28.801 161.825 28.681C164.207 27.8767 166.277 26.3457 167.744 24.3034C169.21 22.2611 169.999 19.8103 170 17.296C170 10.666 164.63 5.29602 158 5.29602Z" fill="white"/>
</svg>
